# xmcd CD database file
#
# Track frame offsets:
#	150
#	13280
#	31432
#	49962
#	66140
#	76557
#	92185
#	108857
#	124287
#	143877
#	159202
#	173707
#	187842
#	204432
#	219192
#
# Disc length: 3167 seconds
#
# Revision: 3
# Processed by: cddbd v1.4PL0 Copyright (c) Steve Scherf et al.
# Submitted via: CDex 1.40Beta8
#
DISCID=c10c5d0f
DTITLE=Shenandoah - Now And Then
DYEAR=1995
DGENRE=Country
TTITLE0=All Over But The Shoutin
TTITLE1=I Will Know You
TTITLE2=Lonely Too Long
TTITLE3=Deeper Than That
TTITLE4=Nowhere To Go But Back
TTITLE5=Mama Knows
TTITLE6=She Doesn't  Cry Anymore
TTITLE7=Next To You, Next To Me
TTITLE8=Sunday In The South
TTITLE9=Two Dozen Roses
TTITLE10=Moon Over Georgia
TTITLE11=Church Of Cumberland Raod
TTITLE12=Ghost In The House
TTITLE13=I Got You
TTITLE14=Somewhere In The Vicinity Of The Heart
EXTD=YEAR: 1995 ID3G: 2
EXTT0=
EXTT1=
EXTT2=
EXTT3=
EXTT4=
EXTT5=
EXTT6=
EXTT7=
EXTT8=
EXTT9=
EXTT10=
EXTT11=
EXTT12=
EXTT13=
EXTT14=
PLAYORDER=
